<?xml version="1.0" encoding="UTF-8"?>
<svg xmlns="http://www.w3.org/2000/svg" xmlns:xlink="http://www.w3.org/1999/xlink" width="256px" height="256px" viewBox="0 0 256 256" version="1.1">
<g id="surface1">
<path style=" stroke:none;fill-rule:nonzero;fill:rgb(100%,42.352942%,21.568628%);fill-opacity:1;" d="M 254.953125 144.253906 C 263.910156 74.121094 214.382812 10.003906 144.382812 1.046875 C 74.378906 -7.910156 10.003906 41.617188 1.046875 111.617188 C -7.910156 181.621094 41.617188 245.867188 111.617188 254.953125 C 181.75 263.910156 245.867188 214.382812 254.953125 144.253906 Z M 254.953125 144.253906 "/>
<path style=" stroke:none;fill-rule:nonzero;fill:rgb(100%,100%,100%);fill-opacity:1;" d="M 174.199219 82.183594 L 120.195312 136.191406 L 104.964844 120.960938 C 158.074219 67.851562 163.320312 72.457031 174.199219 82.183594 Z M 174.199219 82.183594 "/>
<path style=" stroke:none;fill-rule:nonzero;fill:rgb(100%,42.352942%,21.568628%);fill-opacity:1;" d="M 120.195312 137.46875 C 119.808594 137.46875 119.554688 137.34375 119.296875 137.085938 L 103.941406 121.855469 C 103.429688 121.34375 103.429688 120.578125 103.941406 120.066406 C 157.945312 66.058594 163.578125 71.179688 174.96875 81.417969 C 175.222656 81.671875 175.351562 81.929688 175.351562 82.3125 C 175.351562 82.695312 175.222656 82.953125 174.96875 83.207031 L 120.960938 137.085938 C 120.832031 137.34375 120.449219 137.46875 120.195312 137.46875 Z M 106.753906 120.960938 L 120.195312 134.398438 L 172.28125 82.3125 C 162.808594 73.867188 156.410156 71.304688 106.753906 120.960938 Z M 106.753906 120.960938 "/>
<path style=" stroke:none;fill-rule:nonzero;fill:rgb(100%,100%,100%);fill-opacity:1;" d="M 135.679688 151.675781 L 120.960938 136.957031 L 174.96875 82.953125 C 189.429688 97.542969 167.800781 121.21875 135.679688 151.675781 Z M 135.679688 151.675781 "/>
<path style=" stroke:none;fill-rule:nonzero;fill:rgb(100%,42.352942%,21.568628%);fill-opacity:1;" d="M 135.679688 152.957031 C 135.292969 152.957031 135.039062 152.828125 134.78125 152.570312 L 120.066406 137.855469 C 119.808594 137.597656 119.808594 137.34375 119.808594 136.957031 C 119.808594 136.574219 119.9375 136.320312 120.195312 136.0625 L 174.199219 82.054688 C 174.710938 81.542969 175.480469 81.542969 175.992188 82.054688 C 179.320312 85.128906 181.109375 89.480469 180.984375 93.957031 C 180.726562 108.164062 164.601562 126.207031 136.703125 152.570312 C 136.320312 152.828125 135.933594 152.957031 135.679688 152.957031 Z M 122.753906 136.957031 C 130.945312 145.277344 134.398438 148.605469 135.679688 149.882812 C 157.179688 129.40625 178.039062 108.417969 178.167969 93.957031 C 178.296875 90.628906 177.015625 87.304688 174.839844 84.742188 Z M 122.753906 136.957031 "/>
<path style=" stroke:none;fill-rule:nonzero;fill:rgb(100%,100%,100%);fill-opacity:1;" d="M 105.21875 121.34375 L 116.097656 132.222656 C 116.355469 132.480469 116.355469 132.734375 116.097656 132.992188 C 115.96875 133.117188 115.96875 133.117188 115.84375 133.117188 L 93.316406 137.980469 C 92.167969 138.109375 91.144531 137.34375 90.886719 136.191406 C 90.757812 135.550781 91.015625 134.910156 91.398438 134.527344 L 104.453125 121.472656 C 104.707031 121.21875 105.09375 121.089844 105.21875 121.34375 Z M 105.21875 121.34375 "/>
<path style=" stroke:none;fill-rule:nonzero;fill:rgb(100%,42.352942%,21.568628%);fill-opacity:1;" d="M 92.933594 139.261719 C 91.015625 139.261719 89.605469 137.726562 89.605469 135.804688 C 89.605469 134.910156 89.992188 134.015625 90.628906 133.375 L 103.683594 120.320312 C 104.453125 119.679688 105.476562 119.679688 106.242188 120.320312 L 117.121094 131.199219 C 117.890625 131.839844 117.890625 132.992188 117.121094 133.757812 C 116.867188 134.015625 116.609375 134.144531 116.226562 134.269531 L 93.703125 139.132812 C 93.445312 139.132812 93.191406 139.261719 92.933594 139.261719 Z M 104.835938 122.753906 L 92.292969 135.292969 C 92.039062 135.550781 91.910156 135.933594 92.167969 136.320312 C 92.292969 136.703125 92.679688 136.832031 93.0625 136.703125 L 114.179688 132.09375 Z M 104.835938 122.753906 "/>
<path style=" stroke:none;fill-rule:nonzero;fill:rgb(100%,100%,100%);fill-opacity:1;" d="M 202.738281 52.238281 C 194.546875 44.304688 181.367188 44.558594 173.433594 52.878906 C 165.496094 61.195312 165.753906 74.25 174.070312 82.183594 C 180.855469 88.710938 191.09375 89.863281 199.15625 85 L 184.566406 70.410156 Z M 202.738281 52.238281 "/>
<path style=" stroke:none;fill-rule:nonzero;fill:rgb(100%,42.352942%,21.568628%);fill-opacity:1;" d="M 188.40625 89.222656 C 176.246094 89.222656 166.394531 79.367188 166.394531 67.210938 C 166.394531 55.054688 176.246094 45.199219 188.40625 45.199219 C 194.035156 45.199219 199.539062 47.375 203.632812 51.34375 C 203.890625 51.597656 204.019531 51.855469 204.019531 52.238281 C 204.019531 52.621094 203.890625 52.878906 203.632812 53.132812 L 186.359375 70.410156 L 199.921875 83.976562 C 200.433594 84.488281 200.433594 85.253906 199.921875 85.769531 C 199.796875 85.894531 199.796875 85.894531 199.667969 86.023438 C 196.339844 88.070312 192.371094 89.222656 188.40625 89.222656 Z M 188.40625 47.886719 C 177.65625 47.886719 168.953125 56.589844 169.082031 67.339844 C 169.082031 78.089844 177.78125 86.792969 188.53125 86.664062 C 191.476562 86.664062 194.421875 86.023438 197.109375 84.617188 L 183.671875 71.304688 C 183.414062 71.050781 183.285156 70.792969 183.285156 70.410156 C 183.285156 70.027344 183.414062 69.769531 183.671875 69.515625 L 200.820312 52.367188 C 197.363281 49.421875 193.011719 47.886719 188.40625 47.886719 Z M 188.40625 47.886719 "/>
<path style=" stroke:none;fill-rule:nonzero;fill:rgb(100%,100%,100%);fill-opacity:1;" d="M 203.121094 52.621094 L 202.867188 52.367188 L 184.566406 70.410156 L 199.027344 84.871094 C 200.433594 83.976562 201.84375 82.953125 202.996094 81.800781 C 211.183594 73.738281 211.183594 60.683594 203.121094 52.621094 Z M 203.121094 52.621094 "/>
<path style=" stroke:none;fill-rule:nonzero;fill:rgb(100%,42.352942%,21.568628%);fill-opacity:1;" d="M 199.15625 86.28125 C 198.769531 86.28125 198.515625 86.152344 198.257812 85.894531 L 183.671875 71.304688 C 183.414062 71.050781 183.285156 70.792969 183.285156 70.410156 C 183.285156 70.027344 183.414062 69.769531 183.671875 69.515625 L 201.84375 51.34375 C 202.355469 50.828125 203.121094 50.828125 203.632812 51.34375 L 204.019531 51.597656 C 212.59375 60.171875 212.59375 73.992188 204.144531 82.695312 C 202.867188 83.976562 201.457031 85.128906 199.921875 86.023438 C 199.539062 86.152344 199.28125 86.28125 199.15625 86.28125 Z M 186.359375 70.410156 L 199.28125 83.335938 C 200.308594 82.695312 201.332031 81.800781 202.097656 81.03125 C 209.394531 73.738281 209.777344 61.835938 202.738281 54.15625 Z M 186.359375 70.410156 "/>
<path style=" stroke:none;fill-rule:nonzero;fill:rgb(100%,100%,100%);fill-opacity:1;" d="M 176.375 84.488281 C 173.304688 81.417969 168.3125 81.417969 165.242188 84.488281 L 116.992188 132.734375 L 125.054688 140.796875 L 176.121094 96.003906 C 179.445312 93.191406 179.703125 88.199219 176.886719 84.871094 C 176.632812 84.742188 176.503906 84.617188 176.375 84.488281 Z M 176.375 84.488281 "/>
<path style=" stroke:none;fill-rule:nonzero;fill:rgb(100%,42.352942%,21.568628%);fill-opacity:1;" d="M 124.929688 142.078125 C 124.542969 142.078125 124.289062 141.949219 124.03125 141.695312 L 115.96875 133.632812 C 115.457031 133.117188 115.457031 132.351562 115.96875 131.839844 L 164.21875 83.59375 C 167.800781 80.007812 173.558594 80.007812 177.144531 83.59375 C 180.726562 87.175781 180.726562 92.933594 177.144531 96.519531 C 177.015625 96.644531 176.886719 96.773438 176.757812 96.902344 L 125.695312 141.695312 C 125.570312 141.949219 125.3125 142.078125 124.929688 142.078125 Z M 118.785156 132.734375 L 125.054688 139.007812 L 175.222656 94.980469 C 178.039062 92.679688 178.296875 88.457031 175.992188 85.640625 C 173.6875 82.824219 169.464844 82.566406 166.648438 84.871094 C 166.519531 85 166.394531 85.128906 166.136719 85.253906 Z M 118.785156 132.734375 "/>
<path style=" stroke:none;fill-rule:nonzero;fill:rgb(100%,100%,100%);fill-opacity:1;" d="M 80.007812 187.636719 C 79.496094 187.894531 79.242188 188.40625 79.367188 188.917969 L 81.542969 198.132812 C 82.054688 199.410156 81.289062 200.945312 79.878906 201.332031 C 78.855469 201.714844 77.703125 201.332031 77.066406 200.5625 L 62.988281 186.613281 L 108.929688 140.667969 L 124.800781 140.925781 L 135.550781 151.675781 C 132.992188 153.851562 117.507812 168.824219 80.007812 187.636719 Z M 80.007812 187.636719 "/>
<path style=" stroke:none;fill-rule:nonzero;fill:rgb(100%,42.352942%,21.568628%);fill-opacity:1;" d="M 78.984375 202.609375 C 77.960938 202.609375 76.9375 202.226562 76.296875 201.457031 L 62.347656 187.507812 C 62.09375 187.253906 61.964844 186.996094 61.964844 186.613281 C 61.964844 186.230469 62.09375 185.972656 62.347656 185.71875 L 108.292969 139.773438 C 108.546875 139.519531 108.929688 139.390625 109.1875 139.390625 L 125.054688 139.644531 C 125.441406 139.644531 125.695312 139.773438 125.953125 140.03125 L 136.703125 150.78125 C 136.957031 151.035156 137.085938 151.417969 137.085938 151.804688 C 137.085938 152.1875 136.957031 152.445312 136.574219 152.699219 L 135.679688 153.46875 C 122.113281 165.371094 103.683594 177.269531 80.777344 188.660156 L 82.953125 197.746094 C 83.335938 199.410156 82.566406 201.203125 81.03125 202.097656 C 80.265625 202.484375 79.625 202.609375 78.984375 202.609375 Z M 64.90625 186.613281 L 78.089844 199.667969 C 78.472656 200.308594 79.242188 200.5625 79.878906 200.179688 C 80.519531 199.796875 80.777344 199.027344 80.394531 198.386719 L 78.21875 189.171875 C 77.960938 188.019531 78.472656 186.996094 79.496094 186.484375 C 102.148438 175.09375 120.449219 163.320312 133.886719 151.675781 L 124.417969 142.207031 L 109.699219 141.949219 Z M 64.90625 186.613281 "/>
<path style=" stroke:none;fill-rule:nonzero;fill:rgb(100%,100%,100%);fill-opacity:1;" d="M 52.109375 197.621094 L 63.117188 186.613281 L 79.496094 202.996094 L 53.390625 201.203125 C 52.238281 201.074219 51.46875 200.050781 51.597656 198.898438 C 51.597656 198.386719 51.726562 197.875 52.109375 197.621094 Z M 52.109375 197.621094 "/>
<path style=" stroke:none;fill-rule:nonzero;fill:rgb(100%,42.352942%,21.568628%);fill-opacity:1;" d="M 79.496094 204.144531 L 53.261719 202.355469 C 51.34375 202.226562 50.0625 200.5625 50.191406 198.644531 C 50.316406 197.875 50.574219 197.109375 51.214844 196.59375 L 62.21875 185.589844 C 62.730469 185.078125 63.5 185.078125 64.011719 185.589844 L 80.394531 201.96875 C 80.777344 202.355469 80.90625 202.867188 80.648438 203.378906 C 80.394531 203.890625 80.007812 204.144531 79.496094 204.144531 Z M 63.117188 188.40625 L 53.003906 198.515625 C 52.621094 198.769531 52.621094 199.410156 53.003906 199.667969 C 53.132812 199.796875 53.261719 199.921875 53.515625 199.921875 L 76.167969 201.457031 Z M 63.117188 188.40625 "/>
<path style=" stroke:none;fill-rule:nonzero;fill:rgb(100%,42.352942%,21.568628%);fill-opacity:1;" d="M 104.453125 146.558594 C 103.683594 146.558594 103.171875 145.917969 103.171875 145.277344 C 103.171875 144.894531 103.300781 144.636719 103.554688 144.382812 L 115.96875 131.96875 C 116.480469 131.457031 117.25 131.457031 117.761719 131.96875 L 125.824219 140.03125 C 126.207031 140.414062 126.335938 140.796875 126.207031 141.308594 C 126.082031 141.695312 125.695312 142.078125 125.183594 142.207031 L 104.707031 146.558594 C 104.582031 146.558594 104.453125 146.558594 104.453125 146.558594 Z M 116.867188 134.65625 L 108.417969 143.101562 L 122.242188 140.15625 Z M 116.867188 134.65625 "/>
<path style=" stroke:none;fill-rule:nonzero;fill:rgb(100%,100%,100%);fill-opacity:1;" d="M 124.800781 140.925781 L 110.722656 143.996094 C 109.699219 144.253906 108.675781 143.613281 108.417969 142.589844 C 108.292969 141.949219 108.417969 141.308594 108.929688 140.796875 L 116.738281 132.992188 Z M 124.800781 140.925781 "/>
<path style=" stroke:none;fill-rule:nonzero;fill:rgb(100%,42.352942%,21.568628%);fill-opacity:1;" d="M 110.46875 145.277344 C 108.675781 145.277344 107.269531 143.871094 107.269531 142.078125 C 107.269531 141.179688 107.652344 140.414062 108.164062 139.773438 L 115.96875 131.96875 C 116.480469 131.457031 117.25 131.457031 117.761719 131.96875 L 125.824219 140.03125 C 126.207031 140.414062 126.335938 140.796875 126.207031 141.308594 C 126.082031 141.695312 125.695312 142.078125 125.183594 142.207031 L 111.105469 145.277344 C 110.851562 145.277344 110.59375 145.277344 110.46875 145.277344 Z M 116.867188 134.65625 L 109.957031 141.566406 C 109.699219 141.820312 109.699219 142.078125 109.828125 142.332031 C 109.957031 142.589844 110.210938 142.71875 110.59375 142.71875 L 122.367188 140.15625 Z M 116.867188 134.65625 "/>
<path style=" stroke:none;fill-rule:nonzero;fill:rgb(100%,42.352942%,21.568628%);fill-opacity:1;" d="M 203.25 64.90625 C 202.996094 64.140625 202.097656 63.753906 201.332031 64.011719 C 200.5625 64.265625 200.179688 65.164062 200.433594 65.929688 C 200.433594 66.058594 200.5625 66.1875 200.5625 66.316406 C 201.332031 67.851562 201.074219 69.769531 200.050781 71.179688 C 199.539062 71.816406 199.667969 72.714844 200.179688 73.226562 C 200.820312 73.738281 201.714844 73.609375 202.226562 72.96875 C 204.144531 70.539062 204.53125 67.46875 203.25 64.90625 Z M 203.25 64.90625 "/>
</g>
</svg>
